<svg width="36" height="36" viewBox="0 0 36 36" fill="none" xmlns="http://www.w3.org/2000/svg">
<path d="M16.2 18L22.05 23.85C22.325 24.125 22.4625 24.475 22.4625 24.9C22.4625 25.325 22.325 25.675 22.05 25.95C21.775 26.225 21.425 26.3625 21 26.3625C20.575 26.3625 20.225 26.225 19.95 25.95L13.05 19.05C12.9 18.9 12.794 18.7375 12.732 18.5625C12.67 18.3875 12.6385 18.2 12.6375 18C12.6375 17.8 12.669 17.6125 12.732 17.4375C12.795 17.2625 12.901 17.1 13.05 16.95L19.95 10.05C20.225 9.77501 20.575 9.63751 21 9.63751C21.425 9.63751 21.775 9.77501 22.05 10.05C22.325 10.325 22.4625 10.675 22.4625 11.1C22.4625 11.525 22.325 11.875 22.05 12.15L16.2 18Z" fill="white"/>
</svg>
