<svg width="36" height="36" viewBox="0 0 36 36" fill="none" xmlns="http://www.w3.org/2000/svg">
<path d="M18.9 18L13.05 12.15C12.775 11.875 12.6375 11.525 12.6375 11.1C12.6375 10.675 12.775 10.325 13.05 10.05C13.325 9.77501 13.675 9.63751 14.1 9.63751C14.525 9.63751 14.875 9.77501 15.15 10.05L22.05 16.95C22.2 17.1 22.3065 17.2625 22.3695 17.4375C22.4325 17.6125 22.4635 17.8 22.4625 18C22.4625 18.2 22.431 18.3875 22.368 18.5625C22.305 18.7375 22.199 18.9 22.05 19.05L15.15 25.95C14.875 26.225 14.525 26.3625 14.1 26.3625C13.675 26.3625 13.325 26.225 13.05 25.95C12.775 25.675 12.6375 25.325 12.6375 24.9C12.6375 24.475 12.775 24.125 13.05 23.85L18.9 18Z" fill="white"/>
</svg>
