<svg width="20" height="21" viewBox="0 0 20 21" fill="none" xmlns="http://www.w3.org/2000/svg">
<g filter="url(#filter0_d_1553_323)">
<path d="M9.14834 8.47583L7.90584 7.23333L7.28751 7.85167L9.14251 9.70667L12.6425 6.20667L12.0242 5.58833L9.14834 8.47583ZM10 11.6667C8.91704 11.6667 7.87843 11.2365 7.11265 10.4707C6.34688 9.70491 5.91667 8.6663 5.91667 7.58333C5.91667 6.50037 6.34688 5.46175 7.11265 4.69598C7.87843 3.93021 8.91704 3.5 10 3.5C11.083 3.5 12.1216 3.93021 12.8874 4.69598C13.6531 5.46175 14.0833 6.50037 14.0833 7.58333C14.0833 8.6663 13.6531 9.70491 12.8874 10.4707C12.1216 11.2365 11.083 11.6667 10 11.6667ZM10 2.33333C8.60762 2.33333 7.27226 2.88646 6.28769 3.87102C5.30313 4.85559 4.75001 6.19095 4.75001 7.58333C4.75001 8.97572 5.30313 10.3111 6.28769 11.2956C7.27226 12.2802 8.60762 12.8333 10 12.8333C11.3924 12.8333 12.7277 12.2802 13.7123 11.2956C14.6969 10.3111 15.25 8.97572 15.25 7.58333C15.25 6.19095 14.6969 4.85559 13.7123 3.87102C12.7277 2.88646 11.3924 2.33333 10 2.33333ZM7.59667 1.9775L6.85001 1.085L4.16667 3.33083L4.91917 4.22333L7.59667 1.9775ZM15.8333 3.33667L13.15 1.085L12.3975 1.9775L15.0808 4.22917L15.8333 3.33667Z" fill="black"/>
</g>
<defs>
<filter id="filter0_d_1553_323" x="-1" y="0" width="22" height="22" filterUnits="userSpaceOnUse" color-interpolation-filters="sRGB">
<feFlood flood-opacity="0" result="BackgroundImageFix"/>
<feColorMatrix in="SourceAlpha" type="matrix" values="0 0 0 0 0 0 0 0 0 0 0 0 0 0 0 0 0 0 127 0" result="hardAlpha"/>
<feOffset dy="4"/>
<feGaussianBlur stdDeviation="2"/>
<feComposite in2="hardAlpha" operator="out"/>
<feColorMatrix type="matrix" values="0 0 0 0 0 0 0 0 0 0 0 0 0 0 0 0 0 0 0.25 0"/>
<feBlend mode="normal" in2="BackgroundImageFix" result="effect1_dropShadow_1553_323"/>
<feBlend mode="normal" in="SourceGraphic" in2="effect1_dropShadow_1553_323" result="shape"/>
</filter>
</defs>
</svg>
