<svg width="24" height="25" viewBox="0 0 24 25" fill="none" xmlns="http://www.w3.org/2000/svg">
<path d="M15.5 14.3513H14.71L14.43 14.0813C15.4439 12.9053 16.0011 11.404 16 9.85132C16 8.56574 15.6188 7.30903 14.9046 6.24011C14.1903 5.1712 13.1752 4.33807 11.9874 3.8461C10.7997 3.35413 9.49279 3.22541 8.23191 3.47622C6.97104 3.72702 5.81285 4.34609 4.90381 5.25513C3.99477 6.16417 3.3757 7.32236 3.1249 8.58323C2.87409 9.84411 3.00282 11.151 3.49479 12.3388C3.98676 13.5265 4.81988 14.5416 5.8888 15.2559C6.95772 15.9701 8.21442 16.3513 9.5 16.3513C11.11 16.3513 12.59 15.7613 13.73 14.7813L14 15.0613V15.8513L19 20.8413L20.49 19.3513L15.5 14.3513ZM9.5 14.3513C7.01 14.3513 5 12.3413 5 9.85132C5 7.36132 7.01 5.35132 9.5 5.35132C11.99 5.35132 14 7.36132 14 9.85132C14 12.3413 11.99 14.3513 9.5 14.3513Z" fill="#525252"/>
</svg>