<svg width="56" height="56" viewBox="0 0 56 56" fill="none" xmlns="http://www.w3.org/2000/svg">
<path d="M28 54.25C42.4975 54.25 54.25 42.4975 54.25 28C54.25 13.5025 42.4975 1.75 28 1.75C13.5025 1.75 1.75 13.5025 1.75 28C1.75 42.4975 13.5025 54.25 28 54.25Z" fill="#FFDD67"/>
<path d="M17.9375 27.65C20.3537 27.65 22.3125 25.6912 22.3125 23.275C22.3125 20.8587 20.3537 18.9 17.9375 18.9C15.5213 18.9 13.5625 20.8587 13.5625 23.275C13.5625 25.6912 15.5213 27.65 17.9375 27.65Z" fill="#664E27"/>
<path d="M38.0625 27.65C40.4787 27.65 42.4375 25.6912 42.4375 23.275C42.4375 20.8587 40.4787 18.9 38.0625 18.9C35.6463 18.9 33.6875 20.8587 33.6875 23.275C33.6875 25.6912 35.6463 27.65 38.0625 27.65Z" fill="#664E27"/>
<path d="M39.025 35.2625C31.9375 40.25 24.0625 40.1625 16.975 35.2625C16.1 34.65 15.4 35.7 15.925 36.6625C18.1125 40.1625 22.4 43.4 28 43.4C33.6 43.4 37.8875 40.25 40.075 36.6625C40.6 35.7 39.9 34.65 39.025 35.2625Z" fill="#664E27"/>
</svg>
