<svg width="24" height="25" viewBox="0 0 24 25" fill="none" xmlns="http://www.w3.org/2000/svg">
<path d="M22 17.24V5.17001C22 3.97001 21.02 3.08001 19.83 3.18001H19.77C17.67 3.36001 14.48 4.43001 12.7 5.55001L12.53 5.66001C12.24 5.84001 11.76 5.84001 11.47 5.66001L11.22 5.51001C9.44 4.40001 6.26 3.34001 4.16 3.17001C2.97 3.07001 2 3.97001 2 5.16001V17.24C2 18.2 2.78 19.1 3.74 19.22L4.03 19.26C6.2 19.55 9.55 20.65 11.47 21.7L11.51 21.72C11.78 21.87 12.21 21.87 12.47 21.72C14.39 20.66 17.75 19.55 19.93 19.26L20.26 19.22C21.22 19.1 22 18.2 22 17.24Z" stroke="#797F80" stroke-width="1.5" stroke-linecap="round" stroke-linejoin="round"/>
<path d="M12 5.98999V20.99" stroke="#797F80" stroke-width="1.5" stroke-linecap="round" stroke-linejoin="round"/>
<path d="M7.75 8.98999H5.5" stroke="#797F80" stroke-width="1.5" stroke-linecap="round" stroke-linejoin="round"/>
<path d="M8.5 11.99H5.5" stroke="#797F80" stroke-width="1.5" stroke-linecap="round" stroke-linejoin="round"/>
</svg>
