<svg width="24" height="25" viewBox="0 0 24 25" fill="none" xmlns="http://www.w3.org/2000/svg">
<path d="M21.9301 7.26001L18.5601 20.79C18.3201 21.8 17.4201 22.5 16.3801 22.5H3.24013C1.73013 22.5 0.650145 21.0199 1.10015 19.5699L5.31014 6.05005C5.60014 5.11005 6.47015 4.45996 7.45015 4.45996H19.7501C20.7001 4.45996 21.4901 5.03997 21.8201 5.83997C22.0101 6.26997 22.0501 6.76001 21.9301 7.26001Z" stroke="#797F80" stroke-width="1.5" stroke-miterlimit="10"/>
<path d="M16 22.5H20.78C22.07 22.5 23.08 21.41 22.99 20.12L22 6.5" stroke="#797F80" stroke-width="1.5" stroke-miterlimit="10" stroke-linecap="round" stroke-linejoin="round"/>
<path d="M9.68018 6.88L10.7202 2.56006" stroke="#797F80" stroke-width="1.5" stroke-miterlimit="10" stroke-linecap="round" stroke-linejoin="round"/>
<path d="M16.3799 6.89001L17.3199 2.55005" stroke="#797F80" stroke-width="1.5" stroke-miterlimit="10" stroke-linecap="round" stroke-linejoin="round"/>
<path d="M7.7002 12.5H15.7002" stroke="#797F80" stroke-width="1.5" stroke-miterlimit="10" stroke-linecap="round" stroke-linejoin="round"/>
<path d="M6.7002 16.5H14.7002" stroke="#797F80" stroke-width="1.5" stroke-miterlimit="10" stroke-linecap="round" stroke-linejoin="round"/>
</svg>
