<svg width="96" height="20" viewBox="0 0 96 20" fill="none" xmlns="http://www.w3.org/2000/svg">
<path d="M8.49557 0L10.403 6.90983H16.5753L11.5818 11.1803L13.4891 18.0902L8.49557 13.8197L3.502 18.0902L5.40938 11.1803L0.415803 6.90983H6.5882L8.49557 0Z" fill="#FEC600"/>
<path d="M28.8852 0L30.7926 6.90983H36.965L31.9714 11.1803L33.8788 18.0902L28.8852 13.8197L23.8916 18.0902L25.799 11.1803L20.8055 6.90983H26.9778L28.8852 0Z" fill="#FEC600"/>
<path d="M49.2739 0L51.1813 6.90983H57.3537L52.3601 11.1803L54.2675 18.0902L49.2739 13.8197L44.2803 18.0902L46.1877 11.1803L41.1941 6.90983H47.3665L49.2739 0Z" fill="#FEC600"/>
<path d="M67.1147 0L69.0221 6.90983H75.1945L70.2009 11.1803L72.1083 18.0902L67.1147 13.8197L62.1211 18.0902L64.0285 11.1803L59.0349 6.90983H65.2073L67.1147 0Z" fill="#FEC600"/>
<path d="M87.5044 0L89.4117 6.90983H95.5841L90.5906 11.1803L92.4979 18.0902L87.5044 13.8197L82.5108 18.0902L84.4182 11.1803L79.4246 6.90983H85.597L87.5044 0Z" fill="#FEC600"/>
</svg>
