<svg width="20" height="21" viewBox="0 0 20 21" fill="none" xmlns="http://www.w3.org/2000/svg">
<g filter="url(#filter0_d_1960_2917)">
<path d="M9.14866 8.47583L7.90616 7.23333L7.28783 7.85167L9.14283 9.70667L12.6428 6.20667L12.0245 5.58833L9.14866 8.47583ZM10.0003 11.6667C8.91736 11.6667 7.87875 11.2365 7.11297 10.4707C6.3472 9.70491 5.91699 8.6663 5.91699 7.58333C5.91699 6.50037 6.3472 5.46175 7.11297 4.69598C7.87875 3.93021 8.91736 3.5 10.0003 3.5C11.0833 3.5 12.1219 3.93021 12.8877 4.69598C13.6535 5.46175 14.0837 6.50037 14.0837 7.58333C14.0837 8.6663 13.6535 9.70491 12.8877 10.4707C12.1219 11.2365 11.0833 11.6667 10.0003 11.6667ZM10.0003 2.33333C8.60794 2.33333 7.27258 2.88646 6.28801 3.87102C5.30345 4.85559 4.75033 6.19095 4.75033 7.58333C4.75033 8.97572 5.30345 10.3111 6.28801 11.2956C7.27258 12.2802 8.60794 12.8333 10.0003 12.8333C11.3927 12.8333 12.7281 12.2802 13.7126 11.2956C14.6972 10.3111 15.2503 8.97572 15.2503 7.58333C15.2503 6.19095 14.6972 4.85559 13.7126 3.87102C12.7281 2.88646 11.3927 2.33333 10.0003 2.33333ZM7.59699 1.9775L6.85033 1.085L4.16699 3.33083L4.91949 4.22333L7.59699 1.9775ZM15.8337 3.33667L13.1503 1.085L12.3978 1.9775L15.0812 4.22917L15.8337 3.33667Z" fill="black"/>
</g>
<defs>
<filter id="filter0_d_1960_2917" x="-1" y="0" width="22" height="22" filterUnits="userSpaceOnUse" color-interpolation-filters="sRGB">
<feFlood flood-opacity="0" result="BackgroundImageFix"/>
<feColorMatrix in="SourceAlpha" type="matrix" values="0 0 0 0 0 0 0 0 0 0 0 0 0 0 0 0 0 0 127 0" result="hardAlpha"/>
<feOffset dy="4"/>
<feGaussianBlur stdDeviation="2"/>
<feComposite in2="hardAlpha" operator="out"/>
<feColorMatrix type="matrix" values="0 0 0 0 0 0 0 0 0 0 0 0 0 0 0 0 0 0 0.25 0"/>
<feBlend mode="normal" in2="BackgroundImageFix" result="effect1_dropShadow_1960_2917"/>
<feBlend mode="normal" in="SourceGraphic" in2="effect1_dropShadow_1960_2917" result="shape"/>
</filter>
</defs>
</svg>
